<svg aria-roledescription="er" role="graphics-document document" viewBox="0 0 356.911865234375 510" style="max-width: 356.911865234375px;" xmlns="http://www.w3.org/2000/svg" width="100%" id="graphDiv"><style>#graphDiv{font-family:"trebuchet ms",verdana,arial,sans-serif;font-size:16px;fill:#ccc;}#graphDiv .error-icon{fill:#a44141;}#graphDiv .error-text{fill:#ddd;stroke:#ddd;}#graphDiv .edge-thickness-normal{stroke-width:2px;}#graphDiv .edge-thickness-thick{stroke-width:3.5px;}#graphDiv .edge-pattern-solid{stroke-dasharray:0;}#graphDiv .edge-pattern-dashed{stroke-dasharray:3;}#graphDiv .edge-pattern-dotted{stroke-dasharray:2;}#graphDiv .marker{fill:#8B5CF6;stroke:#8B5CF6;}#graphDiv .marker.cross{stroke:#8B5CF6;}#graphDiv svg{font-family:"trebuchet ms",verdana,arial,sans-serif;font-size:16px;}#graphDiv .entityBox{fill:#1f2020;stroke:#81B1DB;}#graphDiv .attributeBoxOdd{fill:hsl(240, 10%, 15.9215686275%);stroke:#81B1DB;}#graphDiv .attributeBoxEven{fill:hsl(240, 10%, 5.9215686275%);stroke:#81B1DB;}#graphDiv .relationshipLabelBox{fill:hsl(20, 1.5873015873%, 12.3529411765%);opacity:0.7;background-color:hsl(20, 1.5873015873%, 12.3529411765%);}#graphDiv .relationshipLabelBox rect{opacity:0.5;}#graphDiv .relationshipLine{stroke:#8B5CF6;}#graphDiv .entityTitleText{text-anchor:middle;font-size:18px;fill:#ccc;}#graphDiv #MD_PARENT_START{fill:#f5f5f5!important;stroke:#8B5CF6!important;stroke-width:1;}#graphDiv #MD_PARENT_END{fill:#f5f5f5!important;stroke:#8B5CF6!important;stroke-width:1;}#graphDiv :root{--mermaid-font-family:"trebuchet ms",verdana,arial,sans-serif;}</style><g></g><defs><marker orient="auto" markerHeight="240" markerWidth="190" refY="7" refX="0" id="MD_PARENT_START"><path d="M 18,7 L9,13 L1,7 L9,1 Z"></path></marker></defs><defs><marker orient="auto" markerHeight="28" markerWidth="20" refY="7" refX="19" id="MD_PARENT_END"><path d="M 18,7 L9,13 L1,7 L9,1 Z"></path></marker></defs><defs><marker orient="auto" markerHeight="18" markerWidth="18" refY="9" refX="0" id="ONLY_ONE_START"><path d="M9,0 L9,18 M15,0 L15,18" fill="none" stroke="gray"></path></marker></defs><defs><marker orient="auto" markerHeight="18" markerWidth="18" refY="9" refX="18" id="ONLY_ONE_END"><path d="M3,0 L3,18 M9,0 L9,18" fill="none" stroke="gray"></path></marker></defs><defs><marker orient="auto" markerHeight="18" markerWidth="30" refY="9" refX="0" id="ZERO_OR_ONE_START"><circle r="6" cy="9" cx="21" fill="white" stroke="gray"></circle><path d="M9,0 L9,18" fill="none" stroke="gray"></path></marker></defs><defs><marker orient="auto" markerHeight="18" markerWidth="30" refY="9" refX="30" id="ZERO_OR_ONE_END"><circle r="6" cy="9" cx="9" fill="white" stroke="gray"></circle><path d="M21,0 L21,18" fill="none" stroke="gray"></path></marker></defs><defs><marker orient="auto" markerHeight="36" markerWidth="45" refY="18" refX="18" id="ONE_OR_MORE_START"><path d="M0,18 Q 18,0 36,18 Q 18,36 0,18 M42,9 L42,27" fill="none" stroke="gray"></path></marker></defs><defs><marker orient="auto" markerHeight="36" markerWidth="45" refY="18" refX="27" id="ONE_OR_MORE_END"><path d="M3,9 L3,27 M9,18 Q27,0 45,18 Q27,36 9,18" fill="none" stroke="gray"></path></marker></defs><defs><marker orient="auto" markerHeight="36" markerWidth="57" refY="18" refX="18" id="ZERO_OR_MORE_START"><circle r="6" cy="18" cx="48" fill="white" stroke="gray"></circle><path d="M0,18 Q18,0 36,18 Q18,36 0,18" fill="none" stroke="gray"></path></marker></defs><defs><marker orient="auto" markerHeight="36" markerWidth="57" refY="18" refX="39" id="ZERO_OR_MORE_END"><circle r="6" cy="18" cx="9" fill="white" stroke="gray"></circle><path d="M21,18 Q39,0 57,18 Q39,36 21,18" fill="none" stroke="gray"></path></marker></defs><path style="stroke: gray; fill: none;" marker-start="url(#ONLY_ONE_START)" marker-end="url(#ZERO_OR_MORE_END)" d="M174.228,110L174.228,118.333C174.228,126.667,174.228,143.333,174.228,160C174.228,176.667,174.228,193.333,174.228,201.667L174.228,210" class="er relationshipLine"></path><path style="stroke: gray; fill: none;" marker-start="url(#ONLY_ONE_START)" marker-end="url(#ZERO_OR_MORE_END)" d="M124.857,300L115.714,308.333C106.571,316.667,88.286,333.333,79.143,350C70,366.667,70,383.333,70,391.667L70,400" class="er relationshipLine"></path><path style="stroke: gray; fill: none;" marker-start="url(#ONLY_ONE_START)" marker-end="url(#ZERO_OR_MORE_END)" d="M223.599,300L232.742,308.333C241.885,316.667,260.17,333.333,269.313,351.833C278.456,370.333,278.456,390.667,278.456,400.833L278.456,411" class="er relationshipLine"></path><g transform="translate(113.33161544799805,20 )" id="entity-USER-6e7e2962-0c6f-577d-a7fd-2ce3a0cfd2c8"><rect height="90" width="121.79269409179688" y="0" x="0" class="er entityBox"></rect><text style="dominant-baseline: middle; text-anchor: middle; font-size: 12px;" transform="translate(60.89634704589844,12)" y="0" x="0" id="text-entity-USER-6e7e2962-0c6f-577d-a7fd-2ce3a0cfd2c8" class="er entityLabel">USER</text><rect height="22" width="36.61909484863281" y="24" x="0" class="er attributeBoxOdd"></rect><text style="dominant-baseline: middle; font-size: 10.2px;" transform="translate(5,35)" y="0" x="0" id="text-entity-USER-6e7e2962-0c6f-577d-a7fd-2ce3a0cfd2c8-attr-1-type" class="er entityLabel">string</text><rect height="22" width="85.17359924316406" y="24" x="36.61909484863281" class="er attributeBoxOdd"></rect><text style="dominant-baseline: middle; font-size: 10.2px;" transform="translate(41.61909484863281,35)" y="0" x="0" id="text-entity-USER-6e7e2962-0c6f-577d-a7fd-2ce3a0cfd2c8-attr-1-name" class="er entityLabel">email</text><rect height="22" width="36.61909484863281" y="46" x="0" class="er attributeBoxEven"></rect><text style="dominant-baseline: middle; font-size: 10.2px;" transform="translate(5,57)" y="0" x="0" id="text-entity-USER-6e7e2962-0c6f-577d-a7fd-2ce3a0cfd2c8-attr-2-type" class="er entityLabel">string</text><rect height="22" width="85.17359924316406" y="46" x="36.61909484863281" class="er attributeBoxEven"></rect><text style="dominant-baseline: middle; font-size: 10.2px;" transform="translate(41.61909484863281,57)" y="0" x="0" id="text-entity-USER-6e7e2962-0c6f-577d-a7fd-2ce3a0cfd2c8-attr-2-name" class="er entityLabel">passwordHash</text><rect height="22" width="36.61909484863281" y="68" x="0" class="er attributeBoxOdd"></rect><text style="dominant-baseline: middle; font-size: 10.2px;" transform="translate(5,79)" y="0" x="0" id="text-entity-USER-6e7e2962-0c6f-577d-a7fd-2ce3a0cfd2c8-attr-3-type" class="er entityLabel">string</text><rect height="22" width="85.17359924316406" y="68" x="36.61909484863281" class="er attributeBoxOdd"></rect><text style="dominant-baseline: middle; font-size: 10.2px;" transform="translate(41.61909484863281,79)" y="0" x="0" id="text-entity-USER-6e7e2962-0c6f-577d-a7fd-2ce3a0cfd2c8-attr-3-name" class="er entityLabel">subscriptionPlan</text></g><g transform="translate(105.36784744262695,210 )" id="entity-PROJECT-7694b060-3426-5f95-980b-c6c423c4d7b8"><rect height="90" width="137.72023010253906" y="0" x="0" class="er entityBox"></rect><text style="dominant-baseline: middle; text-anchor: middle; font-size: 12px;" transform="translate(68.86011505126953,12)" y="0" x="0" id="text-entity-PROJECT-7694b060-3426-5f95-980b-c6c423c4d7b8" class="er entityLabel">PROJECT</text><rect height="22" width="36.61909484863281" y="24" x="0" class="er attributeBoxOdd"></rect><text style="dominant-baseline: middle; font-size: 10.2px;" transform="translate(5,35)" y="0" x="0" id="text-entity-PROJECT-7694b060-3426-5f95-980b-c6c423c4d7b8-attr-1-type" class="er entityLabel">string</text><rect height="22" width="101.10113525390625" y="24" x="36.61909484863281" class="er attributeBoxOdd"></rect><text style="dominant-baseline: middle; font-size: 10.2px;" transform="translate(41.61909484863281,35)" y="0" x="0" id="text-entity-PROJECT-7694b060-3426-5f95-980b-c6c423c4d7b8-attr-1-name" class="er entityLabel">projectName</text><rect height="22" width="36.61909484863281" y="46" x="0" class="er attributeBoxEven"></rect><text style="dominant-baseline: middle; font-size: 10.2px;" transform="translate(5,57)" y="0" x="0" id="text-entity-PROJECT-7694b060-3426-5f95-980b-c6c423c4d7b8-attr-2-type" class="er entityLabel">string</text><rect height="22" width="101.10113525390625" y="46" x="36.61909484863281" class="er attributeBoxEven"></rect><text style="dominant-baseline: middle; font-size: 10.2px;" transform="translate(41.61909484863281,57)" y="0" x="0" id="text-entity-PROJECT-7694b060-3426-5f95-980b-c6c423c4d7b8-attr-2-name" class="er entityLabel">repoUrl</text><rect height="22" width="36.61909484863281" y="68" x="0" class="er attributeBoxOdd"></rect><text style="dominant-baseline: middle; font-size: 10.2px;" transform="translate(5,79)" y="0" x="0" id="text-entity-PROJECT-7694b060-3426-5f95-980b-c6c423c4d7b8-attr-3-type" class="er entityLabel">string</text><rect height="22" width="101.10113525390625" y="68" x="36.61909484863281" class="er attributeBoxOdd"></rect><text style="dominant-baseline: middle; font-size: 10.2px;" transform="translate(41.61909484863281,79)" y="0" x="0" id="text-entity-PROJECT-7694b060-3426-5f95-980b-c6c423c4d7b8-attr-3-name" class="er entityLabel">localWorkspacePath</text></g><g transform="translate(20,400 )" id="entity-ANALYSIS-7b822736-be24-52cb-957c-4e87a2b95766"><rect height="90" width="100" y="0" x="0" class="er entityBox"></rect><text style="dominant-baseline: middle; text-anchor: middle; font-size: 12px;" transform="translate(50,12)" y="0" x="0" id="text-entity-ANALYSIS-7b822736-be24-52cb-957c-4e87a2b95766" class="er entityLabel">ANALYSIS</text><rect height="22" width="41.408164978027344" y="24" x="0" class="er attributeBoxOdd"></rect><text style="dominant-baseline: middle; font-size: 10.2px;" transform="translate(5,35)" y="0" x="0" id="text-entity-ANALYSIS-7b822736-be24-52cb-957c-4e87a2b95766-attr-1-type" class="er entityLabel">string</text><rect height="22" width="58.591835021972656" y="24" x="41.408164978027344" class="er attributeBoxOdd"></rect><text style="dominant-baseline: middle; font-size: 10.2px;" transform="translate(46.408164978027344,35)" y="0" x="0" id="text-entity-ANALYSIS-7b822736-be24-52cb-957c-4e87a2b95766-attr-1-name" class="er entityLabel">status</text><rect height="22" width="41.408164978027344" y="46" x="0" class="er attributeBoxEven"></rect><text style="dominant-baseline: middle; font-size: 10.2px;" transform="translate(5,57)" y="0" x="0" id="text-entity-ANALYSIS-7b822736-be24-52cb-957c-4e87a2b95766-attr-2-type" class="er entityLabel">int</text><rect height="22" width="58.591835021972656" y="46" x="41.408164978027344" class="er attributeBoxEven"></rect><text style="dominant-baseline: middle; font-size: 10.2px;" transform="translate(46.408164978027344,57)" y="0" x="0" id="text-entity-ANALYSIS-7b822736-be24-52cb-957c-4e87a2b95766-attr-2-name" class="er entityLabel">progress</text><rect height="22" width="41.408164978027344" y="68" x="0" class="er attributeBoxOdd"></rect><text style="dominant-baseline: middle; font-size: 10.2px;" transform="translate(5,79)" y="0" x="0" id="text-entity-ANALYSIS-7b822736-be24-52cb-957c-4e87a2b95766-attr-3-type" class="er entityLabel">date</text><rect height="22" width="58.591835021972656" y="68" x="41.408164978027344" class="er attributeBoxOdd"></rect><text style="dominant-baseline: middle; font-size: 10.2px;" transform="translate(46.408164978027344,79)" y="0" x="0" id="text-entity-ANALYSIS-7b822736-be24-52cb-957c-4e87a2b95766-attr-3-name" class="er entityLabel">startedAt</text></g><g transform="translate(220,411 )" id="entity-DOCUMENT-930a1042-f082-53f3-9c67-66f432d02c38"><rect height="68" width="116.91184997558594" y="0" x="0" class="er entityBox"></rect><text style="dominant-baseline: middle; text-anchor: middle; font-size: 12px;" transform="translate(58.45592498779297,12)" y="0" x="0" id="text-entity-DOCUMENT-930a1042-f082-53f3-9c67-66f432d02c38" class="er entityLabel">DOCUMENT</text><rect height="22" width="36.61909484863281" y="24" x="0" class="er attributeBoxOdd"></rect><text style="dominant-baseline: middle; font-size: 10.2px;" transform="translate(5,35)" y="0" x="0" id="text-entity-DOCUMENT-930a1042-f082-53f3-9c67-66f432d02c38-attr-1-type" class="er entityLabel">string</text><rect height="22" width="80.29275512695312" y="24" x="36.61909484863281" class="er attributeBoxOdd"></rect><text style="dominant-baseline: middle; font-size: 10.2px;" transform="translate(41.61909484863281,35)" y="0" x="0" id="text-entity-DOCUMENT-930a1042-f082-53f3-9c67-66f432d02c38-attr-1-name" class="er entityLabel">documentType</text><rect height="22" width="36.61909484863281" y="46" x="0" class="er attributeBoxEven"></rect><text style="dominant-baseline: middle; font-size: 10.2px;" transform="translate(5,57)" y="0" x="0" id="text-entity-DOCUMENT-930a1042-f082-53f3-9c67-66f432d02c38-attr-2-type" class="er entityLabel">string</text><rect height="22" width="80.29275512695312" y="46" x="36.61909484863281" class="er attributeBoxEven"></rect><text style="dominant-baseline: middle; font-size: 10.2px;" transform="translate(41.61909484863281,57)" y="0" x="0" id="text-entity-DOCUMENT-930a1042-f082-53f3-9c67-66f432d02c38-attr-2-name" class="er entityLabel">fileStoragePath</text></g><rect height="14" width="26.92578125" y="153" x="160.76510620117188" class="er relationshipLabelBox"></rect><text style="text-anchor: middle; dominant-baseline: middle; font-size: 12px;" y="160" x="174.22799682617188" id="rel1" class="er relationshipLabel">owns</text><rect height="14" width="41.099609375" y="335.966796875" x="62.95923614501953" class="er relationshipLabelBox"></rect><text style="text-anchor: middle; dominant-baseline: middle; font-size: 12px;" y="342.966796875" x="83.50904083251953" id="rel2" class="er relationshipLabel">triggers</text><rect height="14" width="52.94140625" y="340.8414306640625" x="240.71661376953125" class="er relationshipLabelBox"></rect><text style="text-anchor: middle; dominant-baseline: middle; font-size: 12px;" y="347.8414306640625" x="267.18731689453125" id="rel3" class="er relationshipLabel">generates</text></svg>